<svg width="26" height="21" viewBox="0 0 26 21" fill="none" xmlns="http://www.w3.org/2000/svg">
<path d="M19.3108 8.361H17.975C17.5783 6.82482 16.7588 5.43069 15.6094 4.33703C14.46 3.24337 13.0269 2.49403 11.4729 2.17416C9.9189 1.85429 8.30635 1.97672 6.81847 2.52753C5.33059 3.07834 4.02703 4.03545 3.05593 5.2901C2.08483 6.54475 1.48513 8.04664 1.32495 9.62509C1.16478 11.2036 1.45056 12.7953 2.14984 14.2194C2.84911 15.6436 3.93382 16.8431 5.28073 17.6815C6.62763 18.52 8.18272 18.9639 9.76928 18.9627H19.3108C20.7167 18.9627 22.0649 18.4042 23.059 17.4101C24.0531 16.416 24.6116 15.0677 24.6116 13.6618C24.6116 12.256 24.0531 10.9077 23.059 9.91358C22.0649 8.91948 20.7167 8.361 19.3108 8.361Z" stroke="#0D2974" stroke-width="2.12045" stroke-linecap="round" stroke-linejoin="round"/>
</svg>
