<svg width="26" height="27" viewBox="0 0 26 27" fill="none" xmlns="http://www.w3.org/2000/svg">
<path d="M8.71146 21.089V23.21" stroke="#0D2974" stroke-width="2.12103" stroke-linecap="round" stroke-linejoin="round"/>
<path d="M8.71146 14.7259V16.8469" stroke="#0D2974" stroke-width="2.12103" stroke-linecap="round" stroke-linejoin="round"/>
<path d="M17.1956 21.089V23.21" stroke="#0D2974" stroke-width="2.12103" stroke-linecap="round" stroke-linejoin="round"/>
<path d="M17.1956 14.7259V16.8469" stroke="#0D2974" stroke-width="2.12103" stroke-linecap="round" stroke-linejoin="round"/>
<path d="M12.9535 23.21V25.331" stroke="#0D2974" stroke-width="2.12103" stroke-linecap="round" stroke-linejoin="round"/>
<path d="M12.9535 16.8469V18.9679" stroke="#0D2974" stroke-width="2.12103" stroke-linecap="round" stroke-linejoin="round"/>
<path d="M21.4376 18.5225C22.5525 18.0342 23.4654 17.1773 24.0232 16.0956C24.581 15.0138 24.7497 13.7731 24.501 12.5817C24.2523 11.3903 23.6013 10.3207 22.6573 9.5525C21.7132 8.78428 20.5337 8.36421 19.3166 8.36277H17.9803C17.6442 7.06102 17.0035 5.85779 16.111 4.85226C15.2185 3.84674 14.0999 3.06771 12.8472 2.5794C11.5946 2.09108 10.2438 1.90745 8.90625 2.04365C7.56871 2.17985 6.28268 2.63197 5.15417 3.36276C4.02566 4.09354 3.08699 5.08206 2.41551 6.24684C1.74404 7.41161 1.359 8.71929 1.29212 10.0621C1.22524 11.4049 1.47845 12.7444 2.03087 13.9701C2.58328 15.1958 3.41909 16.2727 4.46941 17.112" stroke="#0D2974" stroke-width="2.12103" stroke-linecap="round" stroke-linejoin="round"/>
</svg>
