<svg width="27" height="27" viewBox="0 0 27 27" fill="none" xmlns="http://www.w3.org/2000/svg">
<path d="M21.0849 18.8522C22.3729 18.5907 23.5178 17.8599 24.2973 16.8017C25.0767 15.7436 25.4352 14.4335 25.3032 13.1259C25.1711 11.8183 24.5578 10.6064 23.5825 9.72553C22.6071 8.84463 21.3393 8.35756 20.025 8.35888H18.6895C18.3383 6.99932 17.655 5.74825 16.7009 4.718C15.7469 3.68774 14.5519 2.91054 13.2232 2.45618C11.8946 2.00182 10.4739 1.88453 9.08875 2.11482C7.70359 2.34512 6.3973 2.9158 5.28717 3.77563C4.17703 4.63546 3.2978 5.75752 2.72841 7.04108C2.15903 8.32463 1.91731 9.72949 2.02496 11.1295C2.13261 12.5296 2.58626 13.881 3.34518 15.0624C4.1041 16.2438 5.14453 17.2183 6.37306 17.8983" stroke="#0D2974" stroke-width="2.12" stroke-linecap="round" stroke-linejoin="round"/>
<path d="M14.7253 12.5987L10.4856 18.9583H16.8452L12.6055 25.3179" stroke="#0D2974" stroke-width="2.12" stroke-linecap="round" stroke-linejoin="round"/>
</svg>
