<?xml version="1.0" encoding="UTF-8"?><svg id="Layer_1" xmlns="http://www.w3.org/2000/svg" viewBox="0 0 320.29 97.14"><defs><style>.cls-1{fill:#fff;stroke-width:0px;}</style></defs><path class="cls-1" d="m94.22,48.12c-.48.55-1.15,1.1-2.04,1.65-.88.51-1.76.99-2.64,1.43-.88.44-1.65.82-2.31,1.15-.66.29-.99.5-.99.61s.07.44.22.99c.15.55.31,1.21.5,1.98.22.73.44,1.5.66,2.31.22.81.4,1.52.55,2.14.07.37.17.84.28,1.43s.2,1.17.28,1.76c.11.59.2,1.12.28,1.6.07.44.11.68.11.71,0,.55-.09,1.12-.28,1.71-.18.59-.48.88-.88.88-.22,0-.42-.09-.6-.28-.18-.18-.35-.38-.5-.6-.15-.26-.26-.5-.33-.72-.07-.22-.11-.38-.11-.49v-.33c.04-.15.06-.31.06-.5,0-.7-.11-1.7-.33-3.02-.07-.4-.22-1.03-.44-1.87s-.44-1.71-.66-2.58c-.26-1.03-.55-2.15-.88-3.36-.15-.51-.24-.77-.28-.77-.26,0-.7.17-1.32.49-.59.29-1.26.68-2.03,1.16-.77.44-1.58.93-2.42,1.49-.84.51-1.63,1.01-2.37,1.48-.73.44-1.36.83-1.87,1.16-.55.29-.88.44-.99.44-.48,0-.86-.17-1.15-.49-.29-.33-.44-.7-.44-1.1,0-.22.31-.53.94-.93.59-.44,1.34-.92,2.25-1.43.88-.51,1.85-1.04,2.92-1.6,1.03-.55,1.98-1.04,2.86-1.49.92-.44,1.67-.81,2.25-1.1.62-.29.94-.44.94-.44-.33-1.69-.61-3.19-.83-4.51-.18-1.14-.37-2.18-.55-3.14-.15-.95-.22-1.47-.22-1.54,0-.48.09-.82.28-1.04.22-.26.46-.39.71-.39.4,0,.66.28.77.83.4,1.98.77,3.74,1.1,5.28.37,1.54.71,2.79,1.04,3.74.33-.07.9-.28,1.71-.6.81-.37,1.65-.75,2.53-1.16.88-.4,1.67-.75,2.36-1.04.73-.33,1.15-.49,1.26-.49.22,0,.35.07.39.22.07.15.15.28.22.39Zm20.59,14.68c.18.18.28.29.28.33,0,.07-.11.29-.33.66-.18.37-.44.75-.77,1.15-.33.4-.7.77-1.1,1.1-.37.29-.73.44-1.1.44-.77,0-1.39-.15-1.87-.44-.48-.33-.88-.73-1.21-1.21-.29-.48-.53-.99-.72-1.54-.15-.59-.28-1.14-.39-1.65-.07-.26-.15-.38-.22-.38-.11,0-.33.4-.66,1.21-.33.77-.7,1.63-1.1,2.58-.37.92-.73,1.78-1.1,2.58-.33.77-.55,1.15-.66,1.15-.66,0-1.23-.28-1.71-.82-.44-.59-.81-1.25-1.1-1.98-.26-.77-.46-1.54-.6-2.31-.15-.81-.24-1.43-.28-1.87-.11-.99-.35-2.64-.72-4.95-.37-2.31-.68-5.12-.93-8.42-.07-.7-.17-1.32-.28-1.87-.07-.59-.17-1.23-.28-1.92-.11-.7-.2-1.49-.28-2.37-.07-.88-.11-1.96-.11-3.24,0-.07.02-.31.06-.72.04-.4.09-.84.17-1.32.07-.48.18-.9.33-1.26.18-.37.39-.55.6-.55.26,0,.5.17.71.5.22.29.4.64.55,1.04.18.4.31.79.39,1.16.07.37.11.62.11.77,0,.55-.04,1.06-.11,1.54-.07.48-.11.92-.11,1.32,0,.55.04,1.25.11,2.09.11.84.24,1.71.38,2.58.15.88.28,1.74.39,2.59.11.81.2,1.47.28,1.98,0,.04.04.29.11.77.07.48.15,1.08.22,1.81.11.7.2,1.47.27,2.31.11.81.22,1.61.33,2.42.11.77.2,1.47.28,2.09.11.59.18,1.01.22,1.26,0,.11.02.28.06.5.07.18.13.4.17.66.07.26.15.49.22.71.07.22.17.39.28.5.22-.44.5-1.12.83-2.04.37-.92.73-1.85,1.1-2.81.4-.95.77-1.78,1.1-2.47.37-.73.68-1.1.93-1.1.29,0,.53.06.72.17.18.11.42.2.71.27.37.15.55.35.55.61,0,.22.04.5.11.82.07.44.18,1.03.33,1.76.18.7.38,1.39.6,2.09.22.66.48,1.23.77,1.7.29.48.59.72.88.72.15,0,.35-.18.61-.55.26-.4.6-.62,1.04-.66.07,0,.2.06.39.17.18.07.37.18.55.33Zm18.8,4.4c.04.07.05.18.05.33,0,.22-.16.55-.49.99-.11.15-.35.39-.71.72-.37.33-.86.66-1.49.99s-1.39.62-2.31.88c-.88.26-1.93.39-3.14.39-.84,0-1.67-.18-2.48-.55-.81-.4-1.52-.97-2.14-1.7-.62-.77-1.14-1.71-1.54-2.81-.4-1.14-.61-2.46-.61-3.96s.18-2.77.55-4.01c.37-1.25.82-2.35,1.38-3.3.59-.95,1.23-1.71,1.93-2.25.7-.55,1.38-.83,2.03-.83.59,0,1.17.13,1.76.39.62.22,1.17.51,1.65.88.51.37.92.79,1.21,1.26.29.44.44.9.44,1.38,0,.55-.26,1.12-.77,1.71-.48.59-1.06,1.14-1.76,1.65-.7.48-1.39.88-2.09,1.21-.7.29-1.25.44-1.65.44-.22,0-.42-.09-.6-.28-.15-.22-.22-.48-.22-.77,0-.51.22-.92.66-1.21.48-.29.99-.55,1.54-.77.55-.26,1.04-.55,1.49-.88.48-.33.71-.79.71-1.38,0-.07-.09-.26-.27-.55-.18-.29-.68-.44-1.49-.44-.37,0-.79.22-1.26.66-.48.4-.94.97-1.38,1.71-.44.7-.81,1.54-1.1,2.53-.29.95-.44,2-.44,3.13,0,.95.17,1.82.49,2.59.37.77.83,1.43,1.38,1.98.55.51,1.19.92,1.93,1.21s1.49.44,2.25.44c.55,0,1.14-.11,1.76-.33.66-.26,1.26-.51,1.81-.77.59-.29,1.08-.55,1.49-.77.44-.26.72-.38.83-.38s.22.06.33.16c.15.11.24.22.28.33Zm43.27-18.42c.15.04.22.15.22.33,0,.26-.13.53-.38.83-.26.26-.38.55-.38.88,0,.07-.02.35-.06.83v1.59c0,.59-.02,1.14-.05,1.65v6.33s-.02.29-.06.77-.11,1.04-.22,1.71c-.07.66-.16,1.36-.27,2.09-.07.7-.17,1.3-.27,1.82-.04.15-.15.26-.33.33-.15.07-.33.15-.55.22-.18.04-.37.07-.55.11h-.33c-.4,0-.84-.24-1.32-.71-.44-.48-.86-1.01-1.26-1.6s-.75-1.14-1.05-1.65c-.29-.51-.46-.81-.49-.88-.15.51-.31,1.04-.49,1.6-.18.51-.39.99-.6,1.43-.22.44-.48.81-.77,1.1-.26.29-.55.44-.88.44-.44,0-.9-.22-1.38-.66s-.97-1.01-1.49-1.71c-.48-.7-.93-1.47-1.38-2.31-.44-.88-.82-1.72-1.15-2.53s-.6-1.56-.82-2.25c-.18-.7-.27-1.25-.27-1.65,0-.15.07-.33.22-.55.15-.22.35-.33.61-.33.51,0,.88.17,1.1.5.04.04.15.37.33.99.22.62.51,1.36.88,2.2s.79,1.72,1.26,2.64c.51.88,1.08,1.63,1.71,2.25.26-.48.46-1.01.6-1.6.18-.59.33-1.15.44-1.7.11-.55.18-1.05.22-1.49.04-.48.05-.86.05-1.16-.07-.29-.13-.59-.16-.88-.04-.26-.07-.51-.11-.77v-.66c0-.92.37-1.38,1.1-1.38.55,0,.97.18,1.26.55.29.33.51.73.66,1.21.15.44.24.88.28,1.32.07.44.15.75.22.93.29.84.55,1.63.77,2.36.26.73.68,1.49,1.26,2.26.15-.11.26-.29.33-.55.11-.29.18-.59.22-.88.04-.29.06-.55.06-.77v-11.49c0-.22.09-.42.27-.61.18-.18.4-.35.66-.49.26-.15.49-.26.71-.33.26-.11.44-.17.55-.17.18,0,.35.06.49.17.18.11.39.22.6.33Zm19.95,18.42c.04.07.05.18.05.33,0,.22-.16.55-.49.99-.11.15-.35.39-.71.72-.37.33-.86.66-1.49.99-.62.33-1.39.62-2.31.88-.88.26-1.92.39-3.13.39-.84,0-1.67-.18-2.47-.55-.81-.4-1.52-.97-2.15-1.7-.62-.77-1.14-1.71-1.54-2.81-.4-1.14-.6-2.46-.6-3.96s.18-2.77.55-4.01c.37-1.25.82-2.35,1.38-3.3.59-.95,1.23-1.71,1.93-2.25.7-.55,1.38-.83,2.03-.83.59,0,1.17.13,1.76.39.62.22,1.17.51,1.65.88.51.37.92.79,1.21,1.26.29.44.44.9.44,1.38,0,.55-.26,1.12-.77,1.71-.48.59-1.06,1.14-1.76,1.65-.7.48-1.39.88-2.09,1.21-.7.29-1.25.44-1.65.44-.22,0-.42-.09-.6-.28-.15-.22-.22-.48-.22-.77,0-.51.22-.92.66-1.21.48-.29.99-.55,1.54-.77.55-.26,1.04-.55,1.49-.88.48-.33.71-.79.71-1.38,0-.07-.09-.26-.27-.55-.18-.29-.68-.44-1.49-.44-.37,0-.79.22-1.26.66-.48.4-.93.97-1.38,1.71-.44.7-.81,1.54-1.1,2.53-.29.95-.44,2-.44,3.13,0,.95.17,1.82.5,2.59.37.77.82,1.43,1.38,1.98.55.51,1.19.92,1.92,1.21.73.29,1.49.44,2.26.44.55,0,1.14-.11,1.76-.33.66-.26,1.26-.51,1.82-.77.59-.29,1.08-.55,1.49-.77.44-.26.71-.38.82-.38s.22.06.33.16c.15.11.24.22.28.33Zm30.01-5.67c0,.66-.31,1.49-.94,2.48-.59.95-1.39,1.89-2.42,2.8-1.03.92-2.22,1.71-3.57,2.37-1.36.62-2.77.93-4.24.93-.66,0-1.36-.11-2.09-.33-.73-.22-1.45-.53-2.15-.93-.7-.44-1.32-.95-1.87-1.54-.55-.62-.95-1.32-1.21-2.09-.22.22-.49.59-.82,1.1-.29.51-.62,1.04-.99,1.6-.37.51-.77.97-1.21,1.38-.44.37-.9.55-1.38.55s-.88-.24-1.21-.71c-.29-.51-.53-1.06-.71-1.65-.18-.62-.31-1.21-.38-1.76-.07-.55-.11-.86-.11-.93,0-.44.13-1.26.38-2.47.26-1.25.64-2.53,1.15-3.85.51-1.32,1.15-2.49,1.93-3.52.81-1.03,1.74-1.54,2.8-1.54.4,0,.66.18.77.55.15.33.22.66.22.99v1.65c.18.15.37.26.55.33.22.04.4.11.55.22.18.07.31.2.38.38.11.18.16.48.16.88,0,.26-.02.49-.05.71-.04.18-.05.37-.05.55,0,.95.07,1.89.22,2.81.15.92.44,1.74.88,2.47.44.7,1.04,1.28,1.82,1.76.77.44,1.8.66,3.08.66,1.61,0,2.97-.33,4.07-.99,1.14-.7,2.07-1.45,2.81-2.26.77-.84,1.38-1.59,1.82-2.25.44-.7.81-1.04,1.1-1.04.48,0,.72.24.72.71Zm-19.31-2.42c0-.15-.04-.28-.11-.39-.07-.15-.11-.27-.11-.38,0-.15.04-.28.11-.39.07-.11.11-.26.11-.44,0-.11-.04-.18-.11-.22-.07-.07-.11-.15-.11-.22-.33.07-.68.38-1.04.93-.33.55-.66,1.19-.99,1.92-.29.73-.53,1.49-.71,2.26-.18.73-.27,1.34-.27,1.82,0,.26.07.68.22,1.26.15.59.31.97.49,1.15.62-1.28,1.19-2.53,1.71-3.74.55-1.21.82-2.4.82-3.57Zm34.56-11c-.48.55-1.16,1.1-2.04,1.65-.88.51-1.76.99-2.64,1.43-.88.44-1.65.82-2.31,1.15-.66.29-.99.5-.99.61s.07.44.22.99c.15.55.31,1.21.49,1.98.22.73.44,1.5.66,2.31s.4,1.52.55,2.14c.07.37.16.84.27,1.43s.2,1.17.28,1.76c.11.59.2,1.12.27,1.6.07.44.11.68.11.71,0,.55-.09,1.12-.27,1.71-.18.59-.48.88-.88.88-.22,0-.42-.09-.6-.28-.18-.18-.35-.38-.5-.6-.15-.26-.26-.5-.33-.72-.07-.22-.11-.38-.11-.49v-.33c.04-.15.06-.31.06-.5,0-.7-.11-1.7-.33-3.02-.07-.4-.22-1.03-.44-1.87s-.44-1.71-.66-2.58c-.26-1.03-.55-2.15-.88-3.36-.15-.51-.24-.77-.28-.77-.26,0-.7.17-1.32.49-.59.29-1.26.68-2.04,1.16-.77.44-1.58.93-2.42,1.49-.84.51-1.63,1.01-2.37,1.48-.73.44-1.36.83-1.87,1.16-.55.29-.88.44-.99.44-.48,0-.86-.17-1.15-.49-.29-.33-.44-.7-.44-1.1,0-.22.31-.53.94-.93.59-.44,1.34-.92,2.25-1.43.88-.51,1.85-1.04,2.92-1.6,1.03-.55,1.98-1.04,2.86-1.49.92-.44,1.67-.81,2.25-1.1.62-.29.93-.44.93-.44-.33-1.69-.6-3.19-.82-4.51-.18-1.14-.37-2.18-.55-3.14-.15-.95-.22-1.47-.22-1.54,0-.48.09-.82.27-1.04.22-.26.46-.39.71-.39.4,0,.66.28.77.83.4,1.98.77,3.74,1.1,5.28.37,1.54.71,2.79,1.04,3.74.33-.07.9-.28,1.71-.6.81-.37,1.65-.75,2.53-1.16.88-.4,1.67-.75,2.36-1.04.73-.33,1.15-.49,1.26-.49.22,0,.35.07.39.22.07.15.15.28.22.39Zm20.59,14.68c.18.18.27.29.27.33,0,.07-.11.29-.33.66-.18.37-.44.75-.77,1.15s-.7.77-1.1,1.1c-.37.29-.73.44-1.1.44-.77,0-1.39-.15-1.87-.44-.48-.33-.88-.73-1.21-1.21-.29-.48-.53-.99-.71-1.54-.15-.59-.27-1.14-.39-1.65-.07-.26-.15-.38-.22-.38-.11,0-.33.4-.66,1.21-.33.77-.7,1.63-1.1,2.58-.37.92-.73,1.78-1.1,2.58-.33.77-.55,1.15-.66,1.15-.66,0-1.23-.28-1.71-.82-.44-.59-.81-1.25-1.1-1.98-.26-.77-.46-1.54-.6-2.31-.15-.81-.24-1.43-.27-1.87-.11-.99-.35-2.64-.72-4.95-.37-2.31-.68-5.12-.93-8.42-.07-.7-.16-1.32-.27-1.87-.07-.59-.17-1.23-.28-1.92-.11-.7-.2-1.49-.27-2.37-.07-.88-.11-1.96-.11-3.24,0-.07.02-.31.06-.72.04-.4.09-.84.16-1.32.07-.48.18-.9.33-1.26.18-.37.38-.55.6-.55.26,0,.49.17.71.5.22.29.4.64.55,1.04.18.4.31.79.39,1.16.07.37.11.62.11.77,0,.55-.04,1.06-.11,1.54-.07.48-.11.92-.11,1.32,0,.55.04,1.25.11,2.09.11.84.24,1.71.38,2.58.15.88.27,1.74.38,2.59.11.81.2,1.47.28,1.98,0,.04.04.29.11.77.07.48.15,1.08.22,1.81.11.7.2,1.47.27,2.31.11.81.22,1.61.33,2.42.11.77.2,1.47.27,2.09.11.59.18,1.01.22,1.26,0,.11.02.28.06.5.07.18.13.4.16.66.07.26.15.49.22.71.07.22.16.39.27.5.22-.44.5-1.12.83-2.04.37-.92.73-1.85,1.1-2.81.4-.95.77-1.78,1.1-2.47.37-.73.68-1.1.93-1.1.29,0,.53.06.71.17.18.11.42.2.71.27.37.15.55.35.55.61,0,.22.04.5.11.82.07.44.18,1.03.33,1.76.18.7.38,1.39.6,2.09.22.66.48,1.23.77,1.7.29.48.59.72.88.72.15,0,.35-.18.61-.55.26-.4.61-.62,1.05-.66.07,0,.2.06.38.17.18.07.37.18.55.33Zm18.8,4.4c.04.07.05.18.05.33,0,.22-.17.55-.49.99-.11.15-.35.39-.72.72-.37.33-.86.66-1.48.99s-1.39.62-2.31.88c-.88.26-1.92.39-3.14.39-.84,0-1.67-.18-2.48-.55-.81-.4-1.52-.97-2.14-1.7-.62-.77-1.14-1.71-1.54-2.81-.4-1.14-.6-2.46-.6-3.96s.18-2.77.55-4.01c.37-1.25.83-2.35,1.38-3.3.59-.95,1.23-1.71,1.93-2.25.7-.55,1.38-.83,2.03-.83.59,0,1.17.13,1.76.39.62.22,1.17.51,1.65.88.51.37.92.79,1.21,1.26.29.44.44.9.44,1.38,0,.55-.26,1.12-.77,1.71-.48.59-1.06,1.14-1.76,1.65-.7.48-1.39.88-2.09,1.21-.7.29-1.25.44-1.65.44-.22,0-.42-.09-.61-.28-.15-.22-.22-.48-.22-.77,0-.51.22-.92.66-1.21.48-.29.99-.55,1.54-.77.55-.26,1.05-.55,1.49-.88.48-.33.71-.79.71-1.38,0-.07-.09-.26-.27-.55-.18-.29-.68-.44-1.49-.44-.37,0-.79.22-1.26.66-.48.4-.94.97-1.38,1.71-.44.7-.81,1.54-1.1,2.53-.29.95-.44,2-.44,3.13,0,.95.17,1.82.49,2.59.37.77.83,1.43,1.38,1.98.55.51,1.19.92,1.92,1.21s1.49.44,2.26.44c.55,0,1.14-.11,1.76-.33.66-.26,1.26-.51,1.82-.77.59-.29,1.08-.55,1.48-.77.44-.26.71-.38.83-.38s.22.06.33.16c.15.11.24.22.28.33Zm16.86-11c0,.26-.11.48-.33.66-.22.15-.48.28-.77.38-.29.11-.59.2-.88.28-.29.04-.53.06-.71.06-.55,0-.92-.04-1.1-.11-.18-.07-.33-.11-.44-.11-.92,0-1.65.07-2.2.22-.55.15-.99.39-1.32.72-.29.33-.49.75-.61,1.26-.07.48-.11,1.06-.11,1.76,0,1.17.04,2.11.11,2.81.11.7.2,1.27.28,1.71.11.44.2.79.27,1.04.11.22.16.44.16.66,0,.29-.16.61-.49.93-.29.33-.57.5-.82.5-.44,0-.84-.39-1.21-1.15-.33-.81-.62-1.74-.88-2.81-.22-1.1-.4-2.18-.55-3.25s-.22-1.87-.22-2.42c0-.62.05-1.21.17-1.76.11-.59.26-1.08.44-1.49.18-.44.39-.79.61-1.04.22-.26.44-.39.66-.39.18,0,.33.07.44.22.11.11.2.26.28.44.07.15.15.29.22.44.11.11.24.16.39.16.33,0,.86-.16,1.6-.49s1.63-.5,2.7-.5c.99,0,1.72.04,2.2.11.51.04,1.01.15,1.49.33.11.04.24.13.39.28.18.11.27.29.27.55Zm10.47-9.79c0,.33-.16,1.05-.49,2.15-.33,1.1-.7,2.33-1.1,3.68-.37,1.32-.71,2.62-1.04,3.9-.29,1.28-.44,2.29-.44,3.03,0,.77.04,1.41.11,1.93.07.48.15.88.22,1.21.11.33.2.62.28.88.07.22.11.5.11.83,0,.73-.33,1.1-.99,1.1-.11,0-.22-.07-.33-.22-.81-1.17-1.3-2.33-1.48-3.47-.15-1.14-.22-2.02-.22-2.64,0-.77.11-1.76.33-2.97.22-1.25.49-2.55.83-3.9.33-1.39.7-2.77,1.1-4.12.44-1.39.86-2.6,1.26-3.63.07-.07.17-.15.27-.22.11-.07.26-.11.44-.11.26,0,.46.11.61.33.15.18.26.42.33.71.07.26.13.53.17.83.04.29.05.53.05.71Zm1.82,24.69c0,.4-.13.83-.38,1.26-.22.4-.51.61-.88.61-.48,0-.93-.24-1.38-.71-.4-.48-.61-1.03-.61-1.65,0-.22.04-.5.11-.83.11-.37.35-.55.71-.55.15,0,.35.02.6.06.26.04.51.13.77.27.29.11.53.29.71.55.22.26.33.59.33.99Z"/><path class="cls-1" d="m54.39,31.82c0,.76-.28,1.28-.83,1.56-.55.28-.83.66-.83,1.14-.07-.07.07.31.42,1.14.35.83.66,1.7.94,2.6.49,1.87.9,3.5,1.25,4.89.42,1.39.73,2.67.94,3.85.28,1.18.49,2.36.62,3.54.14,1.18.21,2.5.21,3.95s-.24,2.95-.73,4.47c-.49,1.53-1.18,2.88-2.08,4.06-.9,1.18-2.01,2.15-3.33,2.91s-2.81,1.14-4.47,1.14c-2.57,0-4.61-.52-6.14-1.56-1.46-1.04-2.57-2.22-3.33-3.54-.76-1.32-1.25-2.63-1.46-3.95-.21-1.25-.31-2.08-.31-2.5,0-2.57.66-5.13,1.98-7.7s2.77-4.89,4.37-6.97c1.59-2.08,3.05-3.81,4.37-5.2,1.32-1.39,1.98-2.18,1.98-2.39l-1.14-3.43c-.69.83-1.32,1.77-1.87,2.81-.49.97-1.04,1.91-1.66,2.81-.55.83-1.25,1.56-2.08,2.18-.76.55-1.73.83-2.91.83-1.25,0-2.5-.38-3.74-1.14-1.25-.76-2.36-1.91-3.33-3.43-.97-1.53-1.77-3.36-2.39-5.51-.55-2.15-.83-4.65-.83-7.49,0-1.59.24-3.57.73-5.93.49-2.43,1.25-4.75,2.29-6.97,1.04-2.22,2.32-4.09,3.85-5.62,1.59-1.59,3.43-2.39,5.51-2.39,1.18,0,2.25.21,3.22.62,1.04.42,1.56.94,1.56,1.56,0,.55-.1,1.01-.31,1.35-.21.35-.49.69-.83,1.04-.21-.14-.45-.28-.73-.42-.21-.14-.52-.21-.94-.21-1.53,0-2.91.69-4.16,2.08-1.18,1.32-2.18,2.98-3.02,4.99-.83,1.94-1.49,3.99-1.98,6.14-.42,2.15-.62,4.02-.62,5.62,0,3.54.59,6.24,1.77,8.11,1.18,1.8,2.43,2.7,3.74,2.7.62,0,1.28-.45,1.98-1.35.76-.97,1.46-2.01,2.08-3.12.69-1.18,1.28-2.29,1.77-3.33.49-1.04.76-1.66.83-1.87.14-.69.21-1.49.21-2.39,0-.76-.03-1.59-.1-2.5v-2.91c0-1.8.14-3.29.42-4.47.28-1.25.97-1.87,2.08-1.87s1.91.35,2.39,1.04c.49.62.73,1.39.73,2.29,0,.62-.03,1.39-.1,2.29v2.5c0,.76-.03,1.46-.1,2.08v1.04c0,.42.03,1.04.1,1.87.14.76.24,1.56.31,2.39.14.76.24,1.49.31,2.18.14.62.24,1.04.31,1.25.07.21.17.52.31.94.14.42.28.73.42.94.07-.14.21-.28.42-.42.21-.21.38-.38.52-.52.35.21.66.62.94,1.25.35.55.52.87.52.94Zm-3.54,13.21c-.28-1.11-.59-2.22-.94-3.33-.35-1.11-.69-2.25-1.04-3.43-1.18,1.46-2.32,2.84-3.43,4.16-1.04,1.39-2.01,2.74-2.91,4.06-.83,1.32-1.53,2.67-2.08,4.06-.49,1.46-.73,2.98-.73,4.58,0,2.15.59,3.92,1.77,5.3,1.25,1.39,2.6,2.08,4.06,2.08,1.59,0,3.09-.59,4.47-1.77,1.46-1.18,2.18-2.88,2.18-5.1,0-1.46-.03-2.67-.1-3.64-.07-.97-.17-1.84-.31-2.6-.07-.69-.21-1.39-.42-2.08-.14-.62-.31-1.39-.52-2.29Zm43.37-16.85c0,.42-.14.83-.42,1.25-.28.42-.62.8-1.04,1.14-.35.35-.76.66-1.25.94-.42.21-.8.31-1.14.31-1.18,0-2.7-.24-4.58-.73-1.8-.55-3.26-1.39-4.37-2.5-1.18-1.18-2.22-2.57-3.12-4.16-.9-1.66-1.91-4.09-3.02-7.28-.76,3.05-1.66,6.07-2.7,9.05-.97,2.98-2.57,5.72-4.78,8.22-.14.14-.35.21-.62.21-.49,0-1.01-.24-1.56-.73-.55-.49-.83-.97-.83-1.46s-.07-1.59-.21-3.33c-.07-1.8-.17-3.78-.31-5.93-.14-2.22-.28-4.44-.42-6.66-.07-2.29-.1-4.16-.1-5.62,0-.69.03-1.59.1-2.7.07-1.18.28-2.18.62-3.02.07-.14.31-.42.73-.83.49-.42,1.01-.62,1.56-.62.49,0,.76.31.83.94.07.62.1,1.32.1,2.08v16.43c0,.35.03.83.1,1.46.14.62.31,1.07.52,1.35.76-1.66,1.46-3.61,2.08-5.82.69-2.29,1.35-4.44,1.98-6.45.62-2.08,1.25-3.81,1.87-5.2.62-1.46,1.25-2.18,1.87-2.18.69,0,1.25.14,1.66.42.42.28.76.83,1.04,1.66.35,2.01.62,3.81.83,5.41.21,1.53.45,2.91.73,4.16.35,1.25.8,2.43,1.35,3.54.62,1.04,1.46,2.01,2.5,2.91.97.9,2.05,1.56,3.22,1.98,1.25.42,2.32.62,3.22.62.42,0,.87-.07,1.35-.21.49-.21.83-.31,1.04-.31.28,0,.52.24.73.73.28.49.42.8.42.94Zm23.98-9.67c0,1.53-.21,2.98-.62,4.37s-.97,2.6-1.66,3.64c-.69,1.04-1.53,1.87-2.5,2.5-.9.55-1.91.83-3.02.83-1.94,0-3.47-.55-4.58-1.66-1.11-1.11-1.98-2.39-2.6-3.85-.55-1.46-.94-2.91-1.14-4.37-.14-1.53-.21-2.67-.21-3.43,0-1.25.17-2.63.52-4.16.42-1.59.94-3.05,1.56-4.37.69-1.32,1.46-2.43,2.29-3.33.83-.9,1.7-1.35,2.6-1.35.21,0,.52.07.94.21.49.14.97.35,1.46.62.49.28.9.62,1.25,1.04.42.42.69.9.83,1.46.76.07,1.53.35,2.29.83.76.49,1.18.87,1.25,1.14.56,1.8.9,3.61,1.04,5.41.21,1.8.31,3.29.31,4.47Zm-4.68-1.87c0-1.04-.1-2.11-.31-3.22-.21-1.18-.62-2.36-1.25-3.54-.14.07-.31.1-.52.1-.28,0-.52-.03-.73-.1-.14-.07-.28-.1-.42-.1-.83,0-1.49.24-1.98.73-.49.42-.87,1.01-1.14,1.77-.21.69-.35,1.46-.42,2.29-.07.83-.1,1.63-.1,2.39s.04,1.63.1,2.6c.07.9.21,1.77.42,2.6.28.83.62,1.56,1.04,2.18.42.55.97.83,1.66.83s1.28-.35,1.77-1.04c.49-.76.87-1.63,1.14-2.6.28-.97.45-1.91.52-2.81.14-.97.21-1.66.21-2.08Zm61.39,14.56c0,.55-.17,1.04-.52,1.46-.35.42-.76.76-1.25,1.04-.49.21-1.01.38-1.56.52-.49.14-.9.21-1.25.21-1.46,0-2.7-.76-3.74-2.29-1.04-1.59-1.91-3.33-2.6-5.2-.69-1.94-1.21-3.74-1.56-5.41-.28-1.66-.42-2.57-.42-2.7-.42.76-.87,2.05-1.35,3.85-.42,1.8-.94,3.64-1.56,5.51-.62,1.8-1.42,3.43-2.39,4.89-.9,1.39-2.08,2.08-3.54,2.08-.69,0-1.35-.42-1.98-1.25-.62-.83-1.21-1.91-1.77-3.22-.55-1.32-1.11-2.81-1.66-4.47-.49-1.66-1.01-3.29-1.56-4.89-.49-1.59-.97-3.09-1.46-4.47-.49-1.46-.97-2.6-1.46-3.43-.42,1.04-.8,2.46-1.14,4.26-.28,1.8-.52,3.71-.73,5.72-.21,1.94-.38,3.88-.52,5.82-.14,1.94-.21,3.64-.21,5.1,0,.97-.28,1.66-.83,2.08-.49.42-1.01.62-1.56.62-.76,0-1.53-.49-2.29-1.46-.76-1.04-1.53-2.36-2.29-3.95-.76-1.59-1.49-3.4-2.18-5.41-.62-2.01-1.21-4.02-1.77-6.03-.49-2.01-.87-3.92-1.14-5.72-.28-1.87-.42-3.43-.42-4.68,0-.9.03-1.73.1-2.5.07-.62.1-1.21.1-1.77.07-.55.1-.87.1-.94,0-.21-.07-.35-.21-.42-.07-.07-.1-.24-.1-.52,0-.21.24-.52.73-.94.55-.49,1.11-.73,1.66-.73.97,0,1.59.21,1.87.62.35.42.52.9.52,1.46,0,.21-.04.52-.1.94v2.81c0,.97.17,2.43.52,4.37.35,1.94.76,3.92,1.25,5.93.49,2.01.97,3.88,1.46,5.62.55,1.66,1.01,2.7,1.35,3.12.14-.28.21-.59.21-.94.07-.42.14-.73.21-.94l1.14-8.53c.28-2.15.83-4.4,1.66-6.76.9-2.43,1.84-4.3,2.81-5.62.35-.55.73-.83,1.14-.83s.8.31,1.14.94c1.18,1.94,2.04,3.88,2.6,5.82.62,1.87,1.14,3.74,1.56,5.62.49,1.8,1.01,3.64,1.56,5.51.62,1.8,1.56,3.64,2.81,5.51.55-.9,1.25-2.36,2.08-4.37.83-2.08,1.66-4.16,2.5-6.24.9-2.08,1.73-3.88,2.5-5.41.76-1.59,1.35-2.39,1.77-2.39.21,0,.55.03,1.04.1.49.07.83.1,1.04.1.62,0,1.14.73,1.56,2.18.42,1.39.76,3.05,1.04,4.99.35,1.87.66,3.78.94,5.72.35,1.87.73,3.29,1.14,4.26.28.69.69,1.35,1.25,1.98.55.62,1.11,1.21,1.66,1.77.69.62,1.39,1.25,2.08,1.87Zm37.27-1.14c.07.14.1.35.1.62,0,.42-.31,1.04-.94,1.87-.21.28-.66.73-1.35,1.35-.69.62-1.63,1.25-2.81,1.87-1.18.62-2.63,1.18-4.37,1.66-1.66.49-3.64.73-5.93.73-1.6,0-3.15-.35-4.68-1.04-1.53-.76-2.88-1.84-4.06-3.22-1.18-1.46-2.15-3.22-2.91-5.3-.76-2.15-1.14-4.65-1.14-7.49s.35-5.23,1.04-7.59c.69-2.36,1.56-4.44,2.6-6.24,1.11-1.8,2.32-3.22,3.64-4.26,1.32-1.04,2.6-1.56,3.85-1.56,1.11,0,2.22.24,3.33.73,1.18.42,2.22.97,3.12,1.66.97.69,1.73,1.49,2.29,2.39.55.83.83,1.7.83,2.6,0,1.04-.49,2.11-1.46,3.22-.9,1.11-2.01,2.15-3.33,3.12-1.32.9-2.63,1.66-3.95,2.29-1.32.55-2.36.83-3.12.83-.42,0-.8-.17-1.14-.52-.28-.42-.42-.9-.42-1.46,0-.97.42-1.73,1.25-2.29.9-.55,1.87-1.04,2.91-1.46,1.04-.49,1.98-1.04,2.81-1.66.9-.62,1.35-1.49,1.35-2.6,0-.14-.17-.49-.52-1.04-.35-.55-1.28-.83-2.81-.83-.69,0-1.49.42-2.39,1.25-.9.76-1.77,1.84-2.6,3.22-.83,1.32-1.53,2.91-2.08,4.78-.55,1.8-.83,3.78-.83,5.93,0,1.8.31,3.43.94,4.89.69,1.46,1.56,2.7,2.6,3.74,1.04.97,2.25,1.73,3.64,2.29,1.39.55,2.81.83,4.26.83,1.04,0,2.15-.21,3.33-.62,1.25-.49,2.39-.97,3.43-1.46,1.11-.55,2.04-1.04,2.81-1.46.83-.49,1.35-.73,1.56-.73s.42.1.62.31c.28.21.45.42.52.62Z"/><path class="cls-1" d="m1.58,97.06c-.16,0-.3-.02-.43-.05-.13-.03-.23-.06-.32-.1v-1.06c.07.03.17.06.29.1.12.03.25.05.4.05.36,0,.66-.1.88-.3s.41-.47.56-.82c.16-.34.3-.72.43-1.14v.46l-3.39-8.22h1.31l2.66,6.82h-.24l2.64-6.82h1.15l-3.42,8.77c-.25.63-.52,1.11-.82,1.44-.29.33-.58.56-.88.67-.29.13-.56.19-.82.19Zm12.89-2.85c-1.25,0-2.18-.37-2.78-1.1-.6-.75-.9-1.78-.9-3.1s.31-2.43.94-3.12c.64-.69,1.54-1.04,2.7-1.04.86,0,1.57.18,2.11.53.54.34.94.83,1.2,1.46.26.62.38,1.34.38,2.18,0,1.31-.32,2.34-.96,3.09-.63.75-1.53,1.12-2.7,1.12Zm-.02-1.06c.65,0,1.16-.14,1.52-.42.36-.29.62-.67.77-1.14.16-.48.24-1.01.24-1.6,0-.63-.08-1.17-.24-1.63-.16-.47-.43-.83-.8-1.09-.36-.26-.86-.38-1.49-.38s-1.14.14-1.5.42c-.36.28-.62.65-.78,1.12-.15.46-.22.98-.22,1.57,0,.94.19,1.7.56,2.29.37.58,1.02.86,1.95.86Zm11.59,1.06c-.7,0-1.31-.12-1.81-.37-.5-.24-.89-.6-1.15-1.07-.26-.47-.38-1.04-.38-1.73v-5.06h1.15v4.8c0,.81.18,1.41.53,1.79.36.37.92.56,1.66.56s1.3-.19,1.65-.56c.36-.38.54-.98.54-1.79v-4.8h1.15v5.06c0,1.01-.29,1.8-.88,2.35-.58.54-1.4.82-2.46.82Zm8.31-.24v-7.34c.13-.05.37-.14.74-.27.37-.13.82-.25,1.33-.35.52-.11,1.06-.16,1.62-.16.09,0,.17.01.26.03.09.02.17.04.26.06v1.02c-.28-.03-.55-.05-.82-.05s-.51.02-.75.05c-.25.02-.49.05-.74.1s-.49.08-.74.13v6.78h-1.15Zm18.72.24c-.82,0-1.5-.16-2.05-.48-.53-.33-.93-.79-1.2-1.39-.27-.61-.4-1.32-.4-2.14,0-.92.12-1.66.37-2.22.25-.58.56-1.01.94-1.31.39-.31.82-.52,1.28-.62.47-.12.92-.18,1.36-.18.5,0,.98.07,1.42.21.46.13.83.34,1.12.62.3.29.45.67.45,1.15v6.46c0,.32-.05.65-.14.98-.1.33-.27.64-.53.91-.25.29-.6.52-1.06.69-.45.17-1.03.26-1.74.26-.46,0-.88-.04-1.26-.13-.38-.08-.72-.16-1.01-.24v-1.09c.17.04.36.09.58.14.22.06.46.12.72.16.27.04.55.06.85.06.73,0,1.26-.09,1.6-.27.35-.17.58-.39.69-.66.11-.26.16-.52.16-.78v-1.17l.4.4c-.2.11-.46.21-.77.3-.31.1-.62.18-.94.24s-.6.1-.83.1Zm0-1.06c.34,0,.7-.04,1.07-.13.38-.1.74-.24,1.07-.43v-4.59c0-.3-.09-.52-.26-.67-.16-.16-.38-.27-.66-.32-.28-.06-.58-.1-.9-.1-.78,0-1.37.15-1.76.46-.39.3-.66.7-.8,1.2-.14.5-.21,1.04-.21,1.62,0,.88.19,1.59.56,2.14.37.54,1,.82,1.87.82Zm8.26-6.53c.26-.13.52-.24.78-.34.28-.11.55-.19.83-.26.29-.06.58-.11.86-.14.3-.03.6-.05.9-.05.78,0,1.4.12,1.86.35.46.22.79.56.99.99.21.44.32.96.32,1.58v5.2h-1.15v-5.2c0-.19-.03-.4-.08-.61-.04-.21-.13-.42-.27-.61-.14-.2-.35-.36-.64-.48-.29-.13-.67-.19-1.15-.19-.33,0-.67.03-1.02.08-.35.05-.71.13-1.07.24v6.77h-1.15v-7.34Zm14.79,7.58c-1.25,0-2.18-.37-2.78-1.1-.6-.75-.9-1.78-.9-3.1s.31-2.43.94-3.12c.64-.69,1.54-1.04,2.7-1.04.86,0,1.57.18,2.11.53.54.34.94.83,1.2,1.46.26.62.38,1.34.38,2.18,0,1.31-.32,2.34-.96,3.09-.63.75-1.53,1.12-2.7,1.12Zm-.02-1.06c.65,0,1.16-.14,1.52-.42.36-.29.62-.67.77-1.14.16-.48.24-1.01.24-1.6,0-.63-.08-1.17-.24-1.63-.16-.47-.43-.83-.8-1.09-.36-.26-.86-.38-1.49-.38s-1.14.14-1.5.42c-.36.28-.62.65-.78,1.12-.15.46-.22.98-.22,1.57,0,.94.19,1.7.56,2.29.37.58,1.02.86,1.95.86Zm14.79-4.38v5.2h-1.15v-5.2c0-.19-.03-.4-.08-.61-.04-.21-.13-.42-.27-.61-.14-.2-.35-.36-.64-.48-.29-.13-.67-.19-1.15-.19-.33,0-.67.03-1.02.08-.35.05-.71.13-1.07.24v6.77h-1.15v-7.34c.26-.13.52-.24.78-.34.28-.11.55-.19.83-.26.29-.06.58-.11.86-.14.3-.03.6-.05.9-.05.78,0,1.4.12,1.86.35.46.22.79.56.99.99.21.44.32.96.32,1.58Zm-1.52-1.82c.35-.27.71-.48,1.07-.64.36-.16.74-.28,1.12-.35.39-.08.79-.11,1.18-.11.78,0,1.4.12,1.86.35.46.22.79.56.99.99.21.44.32.96.32,1.58v5.2h-1.15v-5.2c0-.19-.03-.4-.08-.61-.04-.21-.13-.42-.27-.61-.14-.2-.35-.36-.64-.48-.29-.13-.67-.19-1.15-.19-.33,0-.67.05-1.02.14-.35.1-.71.26-1.07.5l-1.15-.58Zm14.8,7.26c-.76,0-1.41-.15-1.97-.46-.55-.32-.98-.79-1.28-1.42-.3-.63-.45-1.41-.45-2.35,0-1.38.31-2.4.93-3.09.63-.69,1.49-1.04,2.58-1.04.85,0,1.54.19,2.05.58.52.38.9.9,1.12,1.55.22.65.33,1.39.32,2.21h-6.42l.08-1.06h5.58l-.45.16c-.03-.8-.23-1.4-.61-1.79-.36-.39-.92-.59-1.68-.59-.52,0-.96.1-1.31.29-.34.19-.6.53-.77,1.01-.17.47-.26,1.13-.26,1.98,0,.97.22,1.71.67,2.22.46.5,1.1.75,1.92.75.39,0,.76-.03,1.09-.08.33-.06.64-.15.91-.26.28-.11.52-.22.74-.35v1.18c-.38.18-.81.32-1.28.42-.46.1-.97.14-1.52.14Zm7.84-4.45v-1.12h4.88v1.12h-4.88Zm12.09,4.45c-.58,0-1.06-.06-1.46-.18-.38-.12-.78-.28-1.2-.5v-1.22c.33.18.62.34.88.46.26.13.52.22.78.29.27.05.57.08.91.08.53,0,.97-.12,1.3-.35.34-.24.51-.54.51-.91,0-.3-.08-.53-.26-.69-.16-.16-.37-.29-.62-.4-.26-.11-.52-.22-.8-.34-.31-.08-.62-.18-.94-.27-.31-.11-.6-.24-.86-.4-.26-.17-.46-.38-.62-.64-.16-.27-.24-.61-.24-1.02s.08-.75.24-1.04c.17-.29.39-.52.66-.7.27-.19.57-.33.9-.42.33-.08.66-.13.99-.13.48,0,.89.06,1.23.19.34.13.69.27,1.06.43v1.15c-.4-.21-.77-.38-1.09-.51-.32-.14-.7-.21-1.14-.21s-.83.09-1.18.27c-.34.17-.51.44-.51.8,0,.3.09.54.26.72.18.17.42.31.7.42.29.1.6.19.93.29.27.08.54.18.83.29.29.1.56.23.8.4.25.16.44.37.59.64.16.27.24.61.24,1.02,0,.57-.14,1.04-.43,1.41-.29.36-.66.63-1.1.8-.44.17-.89.26-1.34.26Zm9.95-.11c-.57,0-1.04-.17-1.42-.51-.38-.35-.58-.87-.58-1.55v-4.99h-1.39v-1.06h1.39v-2.26h1.15v2.26h2.06v1.06h-2.06v4.62c0,.45.07.78.21,1.01.14.22.42.34.85.34.19,0,.38-.02.56-.05.18-.04.33-.09.45-.14v1.09c-.15.05-.34.1-.58.13-.22.04-.44.06-.64.06Zm6.57,2.96c-.16,0-.3-.02-.43-.05-.13-.03-.24-.06-.32-.1v-1.06c.07.03.17.06.29.1.12.03.25.05.4.05.36,0,.66-.1.88-.3s.41-.47.56-.82c.16-.34.3-.72.43-1.14v.46l-3.39-8.22h1.31l2.66,6.82h-.24l2.64-6.82h1.15l-3.42,8.77c-.25.63-.52,1.11-.82,1.44-.29.33-.58.56-.88.67-.29.13-.56.19-.82.19Zm11.33-3.09h-1.15v-11.02h1.15v11.02Zm8.26.24c-.76,0-1.41-.15-1.97-.46-.56-.32-.98-.79-1.28-1.42-.3-.63-.45-1.41-.45-2.35,0-1.38.31-2.4.93-3.09.63-.69,1.49-1.04,2.58-1.04.85,0,1.54.19,2.05.58.52.38.9.9,1.12,1.55s.33,1.39.32,2.21h-6.42l.08-1.06h5.58l-.45.16c-.03-.8-.24-1.4-.61-1.79-.36-.39-.92-.59-1.68-.59-.52,0-.96.1-1.31.29-.34.19-.6.53-.77,1.01-.17.47-.26,1.13-.26,1.98,0,.97.22,1.71.67,2.22.46.5,1.1.75,1.92.75.4,0,.76-.03,1.09-.08.33-.06.63-.15.91-.26.28-.11.52-.22.74-.35v1.18c-.38.18-.81.32-1.28.42-.46.1-.96.14-1.52.14Zm18.14,0c-.82,0-1.5-.16-2.05-.48-.53-.33-.93-.79-1.2-1.39-.27-.61-.4-1.32-.4-2.14,0-.92.12-1.66.37-2.22.24-.58.56-1.01.94-1.31.39-.31.82-.52,1.28-.62.47-.12.92-.18,1.36-.18.5,0,.98.07,1.42.21.46.13.83.34,1.12.62.3.29.45.67.45,1.15v6.46c0,.32-.05.65-.14.98-.1.33-.27.64-.53.91-.25.29-.6.52-1.06.69-.45.17-1.03.26-1.74.26-.46,0-.88-.04-1.26-.13-.38-.08-.72-.16-1.01-.24v-1.09c.17.04.36.09.58.14.22.06.46.12.72.16.27.04.55.06.85.06.73,0,1.26-.09,1.6-.27.35-.17.58-.39.69-.66.11-.26.16-.52.16-.78v-1.17l.4.4c-.2.11-.46.21-.77.3-.31.1-.62.18-.94.24-.32.06-.6.1-.83.1Zm0-1.06c.34,0,.7-.04,1.07-.13.38-.1.74-.24,1.07-.43v-4.59c0-.3-.09-.52-.26-.67-.16-.16-.38-.27-.66-.32-.28-.06-.58-.1-.9-.1-.78,0-1.37.15-1.76.46-.4.3-.66.7-.8,1.2-.14.5-.21,1.04-.21,1.62,0,.88.19,1.59.56,2.14.37.54,1,.82,1.87.82Zm11.01,1.06c-.35,0-.71-.04-1.07-.11-.35-.08-.68-.2-.99-.38-.3-.18-.54-.43-.74-.74-.18-.32-.27-.72-.27-1.2,0-.66.12-1.19.37-1.58.26-.4.6-.69,1.04-.86.45-.18.96-.27,1.54-.27.44,0,.82.03,1.14.08.32.05.6.13.85.24.26.1.49.21.69.34l.22,1.06c-.25-.18-.6-.34-1.07-.46-.46-.14-.96-.21-1.52-.21-.67,0-1.19.13-1.55.38-.36.26-.54.63-.54,1.12,0,.39.11.71.32.94.22.24.5.4.83.5.34.1.69.14,1.04.14.69,0,1.22-.05,1.57-.14.36-.11.54-.34.54-.7v-3.66c0-.62-.18-1.07-.54-1.36-.36-.29-.88-.43-1.55-.43-.43,0-.88.06-1.36.19-.47.12-.88.31-1.22.58v-1.15c.33-.21.77-.37,1.33-.48.55-.12,1.09-.18,1.62-.18.35,0,.68.04.98.11.3.06.57.17.8.3.24.13.43.3.59.51.17.2.3.44.38.72.1.27.14.57.14.91v3.87c0,.57-.17.99-.51,1.26-.33.28-.77.46-1.31.54-.53.09-1.11.13-1.73.13Zm8.51-.24v-7.34c.13-.05.37-.14.74-.27.37-.13.82-.25,1.33-.35.52-.11,1.06-.16,1.62-.16.08,0,.17.01.26.03.09.02.17.04.26.06v1.02c-.28-.03-.55-.05-.82-.05s-.51.02-.75.05c-.25.02-.49.05-.74.1-.25.04-.49.08-.74.13v6.78h-1.15Zm11.18.24c-.38,0-.79-.06-1.22-.18-.43-.11-.83-.31-1.22-.61-.37-.31-.68-.75-.93-1.31-.23-.58-.35-1.32-.35-2.24,0-1.24.3-2.21.9-2.93.61-.72,1.53-1.09,2.75-1.09.24,0,.51.03.83.1.32.06.63.14.94.24.31.1.57.2.77.3l-.4.4v-4.29h1.15v9.98c0,.3-.11.56-.32.77-.2.2-.47.37-.8.5-.33.12-.68.2-1.06.26-.37.06-.73.1-1.06.1Zm.02-1.06c.55,0,1.03-.06,1.44-.19.42-.13.62-.29.62-.48v-5.01c-.33-.19-.69-.33-1.07-.42-.37-.1-.73-.14-1.07-.14-.58,0-1.04.13-1.41.38-.35.24-.61.59-.78,1.04-.16.44-.24.95-.24,1.54s.06,1.11.19,1.62c.13.49.37.89.74,1.2.36.31.89.46,1.58.46Zm11.48,1.06c-.76,0-1.41-.15-1.97-.46-.56-.32-.98-.79-1.28-1.42-.3-.63-.45-1.41-.45-2.35,0-1.38.31-2.4.93-3.09.63-.69,1.49-1.04,2.58-1.04.85,0,1.54.19,2.05.58.52.38.9.9,1.12,1.55s.33,1.39.32,2.21h-6.42l.08-1.06h5.58l-.45.16c-.03-.8-.24-1.4-.61-1.79-.36-.39-.92-.59-1.68-.59-.52,0-.96.1-1.31.29-.34.19-.6.53-.77,1.01-.17.47-.26,1.13-.26,1.98,0,.97.22,1.71.67,2.22.46.5,1.1.75,1.92.75.39,0,.76-.03,1.09-.08.33-.06.63-.15.91-.26.28-.11.52-.22.74-.35v1.18c-.38.18-.81.32-1.28.42-.46.1-.97.14-1.52.14Zm7.85-7.58c.26-.13.52-.24.78-.34.28-.11.55-.19.83-.26.29-.06.58-.11.86-.14.3-.03.6-.05.9-.05.78,0,1.4.12,1.86.35.46.22.79.56.99.99.21.44.32.96.32,1.58v5.2h-1.15v-5.2c0-.19-.03-.4-.08-.61-.04-.21-.13-.42-.27-.61-.14-.2-.35-.36-.64-.48-.29-.13-.67-.19-1.15-.19-.33,0-.67.03-1.02.08-.35.05-.71.13-1.07.24v6.77h-1.15v-7.34Zm19.29,7.34v-6.93h-1.38v-1.06h1.38v-.43c0-.59.06-1.06.19-1.42.14-.37.31-.66.53-.86.21-.21.44-.36.67-.45.23-.1.46-.15.67-.16.21-.02.38-.03.51-.03.15,0,.29.01.42.03.13.01.25.03.35.06v1.02c-.07-.02-.16-.04-.26-.05-.1-.01-.2-.02-.32-.02-.18,0-.37.01-.56.03-.19.02-.37.09-.53.21-.16.11-.29.29-.38.54-.1.24-.14.6-.14,1.07v.45h2.19v1.06h-2.19v6.93h-1.15Zm10.38.24c-1.25,0-2.18-.37-2.78-1.1-.6-.75-.9-1.78-.9-3.1s.32-2.43.94-3.12c.64-.69,1.54-1.04,2.7-1.04.86,0,1.57.18,2.11.53.54.34.94.83,1.2,1.46.26.62.38,1.34.38,2.18,0,1.31-.32,2.34-.96,3.09-.63.75-1.53,1.12-2.7,1.12Zm-.02-1.06c.65,0,1.16-.14,1.52-.42.36-.29.62-.67.77-1.14.16-.48.24-1.01.24-1.6,0-.63-.08-1.17-.24-1.63-.16-.47-.43-.83-.8-1.09-.36-.26-.86-.38-1.49-.38s-1.14.14-1.5.42c-.36.28-.62.65-.78,1.12-.15.46-.22.98-.22,1.57,0,.94.19,1.7.56,2.29.37.58,1.02.86,1.95.86Zm8.24.82v-7.34c.13-.05.37-.14.74-.27.37-.13.82-.25,1.33-.35.52-.11,1.06-.16,1.62-.16.09,0,.17.01.26.03.09.02.17.04.26.06v1.02c-.28-.03-.55-.05-.82-.05s-.51.02-.75.05c-.24.02-.49.05-.74.1-.24.04-.49.08-.74.13v6.78h-1.15Zm11.17.24c-.76,0-1.41-.15-1.97-.46-.55-.32-.98-.79-1.28-1.42-.3-.63-.45-1.41-.45-2.35,0-1.38.31-2.4.93-3.09.63-.69,1.49-1.04,2.58-1.04.85,0,1.54.19,2.05.58.52.38.9.9,1.12,1.55s.33,1.39.32,2.21h-6.42l.08-1.06h5.58l-.45.16c-.03-.8-.23-1.4-.61-1.79-.36-.39-.92-.59-1.68-.59-.52,0-.96.1-1.31.29-.34.19-.6.53-.77,1.01-.17.47-.26,1.13-.26,1.98,0,.97.22,1.71.67,2.22.46.5,1.1.75,1.92.75.39,0,.76-.03,1.09-.08.33-.06.64-.15.91-.26.28-.11.52-.22.74-.35v1.18c-.38.18-.81.32-1.28.42-.46.1-.96.14-1.52.14Zm11.2-.11c-.43,0-.86-.05-1.31-.16-.44-.12-.84-.32-1.22-.61-.36-.3-.66-.72-.88-1.26-.22-.54-.34-1.24-.34-2.1s.11-1.55.34-2.08c.22-.54.52-.96.88-1.26.37-.3.78-.5,1.22-.61.45-.12.89-.18,1.31-.18s.81.04,1.2.11c.41.07.8.19,1.17.34v1.1c-.35-.15-.71-.26-1.09-.34-.37-.07-.76-.11-1.15-.11-.95,0-1.64.24-2.08.72-.43.48-.64,1.25-.64,2.3s.21,1.84.64,2.32c.44.47,1.13.7,2.08.7.39,0,.78-.04,1.15-.11.37-.07.74-.19,1.09-.34v1.12c-.37.14-.76.24-1.17.32-.39.07-.79.11-1.2.11Zm9.68.11c-.35,0-.71-.04-1.07-.11-.35-.08-.68-.2-.99-.38-.3-.18-.54-.43-.74-.74-.18-.32-.27-.72-.27-1.2,0-.66.12-1.19.37-1.58.26-.4.6-.69,1.04-.86.45-.18.96-.27,1.54-.27.44,0,.82.03,1.14.08.32.05.6.13.85.24.26.1.49.21.69.34l.22,1.06c-.24-.18-.6-.34-1.07-.46-.46-.14-.96-.21-1.52-.21-.67,0-1.19.13-1.55.38-.36.26-.54.63-.54,1.12,0,.39.11.71.32.94.22.24.5.4.83.5.34.1.69.14,1.04.14.69,0,1.22-.05,1.57-.14.36-.11.54-.34.54-.7v-3.66c0-.62-.18-1.07-.54-1.36-.36-.29-.88-.43-1.55-.43-.43,0-.88.06-1.36.19-.47.12-.87.31-1.22.58v-1.15c.33-.21.77-.37,1.33-.48.55-.12,1.09-.18,1.62-.18.35,0,.68.04.98.11.3.06.57.17.8.3.23.13.43.3.59.51.17.2.3.44.38.72.1.27.14.57.14.91v3.87c0,.57-.17.99-.51,1.26-.33.28-.77.46-1.31.54-.53.09-1.11.13-1.73.13Zm10.76,0c-.58,0-1.06-.06-1.46-.18-.38-.12-.78-.28-1.2-.5v-1.22c.33.18.62.34.88.46.26.13.52.22.78.29.27.05.57.08.91.08.53,0,.97-.12,1.3-.35.34-.24.51-.54.51-.91,0-.3-.09-.53-.26-.69-.16-.16-.37-.29-.62-.4-.26-.11-.52-.22-.8-.34-.31-.08-.62-.18-.94-.27-.31-.11-.6-.24-.86-.4-.26-.17-.46-.38-.62-.64-.16-.27-.24-.61-.24-1.02s.08-.75.24-1.04c.17-.29.39-.52.66-.7.27-.19.57-.33.9-.42.33-.08.66-.13.99-.13.48,0,.89.06,1.23.19.34.13.69.27,1.06.43v1.15c-.41-.21-.77-.38-1.09-.51-.32-.14-.7-.21-1.14-.21s-.83.09-1.18.27c-.34.17-.51.44-.51.8,0,.3.09.54.26.72.18.17.42.31.7.42.29.1.6.19.93.29.27.08.54.18.83.29.29.1.55.23.8.4.24.16.44.37.59.64.16.27.24.61.24,1.02,0,.57-.14,1.04-.43,1.41-.29.36-.66.63-1.1.8-.44.17-.89.26-1.34.26Zm9.95-.11c-.57,0-1.04-.17-1.42-.51-.38-.35-.58-.87-.58-1.55v-4.99h-1.39v-1.06h1.39v-2.26h1.15v2.26h2.06v1.06h-2.06v4.62c0,.45.07.78.21,1.01.14.22.42.34.85.34.19,0,.38-.02.56-.05.18-.04.33-.09.45-.14v1.09c-.15.05-.34.1-.58.13-.22.04-.44.06-.64.06Z"/></svg>